<?xml version="1.0" standalone="no"?>
<!DOCTYPE svg PUBLIC "-//W3C//DTD SVG 20010904//EN"
 "http://www.w3.org/TR/2001/REC-SVG-20010904/DTD/svg10.dtd">
<svg version="1.0" xmlns="http://www.w3.org/2000/svg"
 width="512.000000pt" height="512.000000pt" viewBox="0 0 512.000000 512.000000"
 preserveAspectRatio="xMidYMid meet">
<g transform="translate(0.000000,512.000000) scale(0.100000,-0.100000)"
fill="#000000" stroke="none">
<path d="M2990 5114 c-19 -2 -73 -9 -120 -15 -675 -82 -1290 -497 -1535 -1036
-37 -80 -89 -233 -101 -297 -6 -35 -5 -39 12 -34 366 108 639 146 949 135 561
-21 1069 -193 1484 -502 497 -371 794 -887 836 -1457 l7 -88 242 0 c279 0 294
4 334 80 26 52 28 90 6 132 -9 18 -97 125 -196 240 l-179 209 39 44 c145 165
272 426 324 668 31 146 31 408 0 554 -150 694 -768 1220 -1587 1348 -96 15
-442 28 -515 19z"/>
<path d="M1880 3560 c-541 -56 -1005 -263 -1359 -605 -473 -457 -632 -1051
-441 -1650 59 -186 185 -415 305 -554 l46 -54 -24 -26 c-112 -121 -390 -448
-398 -468 -25 -67 7 -150 71 -183 39 -20 56 -20 1154 -20 1207 0 1234 1 1446
55 612 156 1139 567 1385 1079 61 128 96 230 127 371 29 136 31 414 4 555 -43
219 -145 459 -273 640 -88 124 -320 355 -443 442 -301 213 -644 348 -1025 404
-122 18 -458 26 -575 14z m-546 -1474 c105 -51 161 -144 161 -266 0 -85 -21
-142 -74 -203 -82 -92 -237 -121 -353 -64 -160 79 -215 278 -118 430 80 126
246 170 384 103z m910 0 c105 -51 161 -144 161 -266 0 -85 -21 -142 -74 -203
-82 -92 -237 -121 -353 -64 -132 65 -195 211 -153 354 53 177 251 261 419 179z
m910 0 c105 -51 161 -144 161 -266 0 -123 -56 -214 -163 -267 -47 -23 -70 -28
-132 -28 -174 0 -294 121 -295 295 0 62 5 85 28 132 73 149 250 208 401 134z"/>
</g>
</svg>
