<?xml version="1.0" standalone="no"?>
<!DOCTYPE svg PUBLIC "-//W3C//DTD SVG 20010904//EN"
 "http://www.w3.org/TR/2001/REC-SVG-20010904/DTD/svg10.dtd">
<svg version="1.0" xmlns="http://www.w3.org/2000/svg"
 width="512.000000pt" height="512.000000pt" viewBox="0 0 512.000000 512.000000"
 preserveAspectRatio="xMidYMid meet">
<g transform="translate(0.000000,512.000000) scale(0.100000,-0.100000)"
fill="#000000" stroke="none">
<path d="M2441 5105 c-124 -35 -101 -13 -1257 -1169 -1022 -1021 -1104 -1106
-1134 -1167 -153 -319 75 -679 432 -679 l68 0 0 -800 c0 -541 4 -816 11 -852
6 -29 27 -87 46 -128 46 -96 149 -202 241 -248 121 -60 157 -63 664 -60 443 3
457 4 484 24 15 11 37 33 48 48 21 27 21 40 26 695 l5 668 30 49 c38 61 115
110 189 119 28 4 168 5 311 3 l260 -3 53 -29 c50 -28 82 -61 113 -116 11 -21
15 -144 19 -692 5 -654 5 -667 26 -694 11 -15 33 -37 48 -48 27 -20 41 -21
484 -24 507 -3 543 0 664 60 92 46 195 152 241 248 19 41 40 99 46 128 7 36
11 311 11 852 l0 800 68 0 c240 0 434 163 474 398 15 92 0 190 -43 282 -29 60
-116 150 -1118 1153 -597 598 -1107 1101 -1133 1118 -26 17 -71 40 -100 51
-71 27 -206 33 -277 13z"/>
</g>
</svg>
