<?xml version="1.0" standalone="no"?>
<!DOCTYPE svg PUBLIC "-//W3C//DTD SVG 20010904//EN"
 "http://www.w3.org/TR/2001/REC-SVG-20010904/DTD/svg10.dtd">
<svg version="1.0" xmlns="http://www.w3.org/2000/svg"
 width="512.000000pt" height="512.000000pt" viewBox="0 0 512.000000 512.000000"
 preserveAspectRatio="xMidYMid meet">
<g transform="translate(0.000000,512.000000) scale(0.100000,-0.100000)"
fill="#000000" stroke="none">
<path d="M2455 5106 c-84 -21 -147 -57 -211 -121 -65 -65 -105 -136 -123 -223
-8 -37 -11 -316 -11 -902 l0 -850 -857 0 c-919 0 -903 1 -1010 -51 -66 -31
-164 -131 -196 -201 -125 -265 27 -576 311 -637 37 -8 307 -11 902 -11 l850 0
0 -850 c0 -586 3 -865 11 -902 18 -87 58 -158 123 -223 179 -178 454 -178 631
0 65 65 106 139 124 223 8 37 11 316 11 902 l0 850 850 0 c586 0 865 3 902 11
87 18 158 58 223 123 137 138 171 338 88 514 -32 70 -130 170 -196 201 -107
52 -91 51 -1009 51 l-858 0 0 850 c0 586 -3 865 -11 902 -18 86 -58 158 -123
224 -114 114 -269 158 -421 120z"/>
</g>
</svg>
